<?xml version="1.0" encoding="UTF-8" standalone="no"?>
<!DOCTYPE svg PUBLIC "-//W3C//DTD SVG 1.1//EN" "http://www.w3.org/Graphics/SVG/1.1/DTD/svg11.dtd">
<!-- Created with Vectornator (http://vectornator.io/) -->
<svg height="100%" stroke-miterlimit="10" style="fill-rule:nonzero;clip-rule:evenodd;stroke-linecap:round;stroke-linejoin:round;" version="1.1" viewBox="0 0 16 16" width="100%" xml:space="preserve" xmlns="http://www.w3.org/2000/svg" xmlns:vectornator="http://vectornator.io" xmlns:xlink="http://www.w3.org/1999/xlink">
<defs/>
<g id="Untitled" vectornator:layerName="Untitled">
<path d="M4.51 7.687C4.51 7.884 4.53 8.044 4.568 8.162C4.61 8.279 4.664 8.407 4.738 8.546C4.76161 8.58272 4.77443 8.62534 4.775 8.669C4.775 8.722 4.743 8.776 4.675 8.829L4.339 9.053C4.29867 9.08212 4.2507 9.0988 4.201 9.101C4.147 9.101 4.094 9.075 4.041 9.027C3.96913 8.94966 3.90483 8.86561 3.849 8.776C3.78951 8.67341 3.73446 8.56832 3.684 8.461C3.269 8.952 2.748 9.198 2.12 9.198C1.673 9.198 1.316 9.069 1.056 8.813C0.795 8.557 0.662 8.215 0.662 7.788C0.662 7.334 0.822 6.966 1.146 6.688C1.471 6.41 1.902 6.272 2.45 6.272C2.63 6.272 2.817 6.288 3.014 6.314C3.211 6.341 3.414 6.384 3.626 6.432L3.626 6.042C3.626 5.636 3.541 5.353 3.376 5.188C3.206 5.022 2.918 4.942 2.508 4.942C2.322 4.942 2.131 4.964 1.934 5.012C1.73827 5.05858 1.54612 5.11907 1.359 5.193C1.29859 5.22035 1.23646 5.24374 1.173 5.263C1.1455 5.27208 1.11692 5.27747 1.088 5.279C1.013 5.279 0.976 5.225 0.976 5.113L0.976 4.851C0.976 4.766 0.986 4.701 1.013 4.665C1.0533 4.61594 1.10472 4.5772 1.163 4.552C1.348 4.456 1.572 4.376 1.833 4.312C2.093 4.242 2.37 4.211 2.663 4.211C3.296 4.211 3.759 4.355 4.057 4.643C4.35 4.931 4.499 5.369 4.499 5.957L4.499 7.687L4.509 7.687L4.51 7.687ZM2.349 8.498C2.524 8.498 2.705 8.466 2.897 8.402C3.088 8.338 3.259 8.22 3.402 8.06C3.48775 7.96176 3.54969 7.84507 3.583 7.719C3.615 7.59 3.637 7.436 3.637 7.254L3.637 7.03C3.47548 6.99083 3.31189 6.96078 3.147 6.94C2.98119 6.91855 2.81419 6.90753 2.647 6.907C2.29 6.907 2.029 6.977 1.854 7.121C1.678 7.265 1.594 7.468 1.594 7.735C1.594 7.985 1.657 8.172 1.79 8.301C1.918 8.434 2.104 8.498 2.349 8.498ZM6.622 9.075C6.526 9.075 6.462 9.059 6.42 9.021C6.377 8.989 6.34 8.915 6.308 8.813L5.058 4.686C5.03335 4.61683 5.0169 4.54501 5.009 4.472C5.009 4.387 5.052 4.339 5.137 4.339L5.659 4.339C5.759 4.339 5.829 4.355 5.866 4.392C5.909 4.424 5.941 4.499 5.973 4.6L6.867 8.135L7.697 4.6C7.723 4.494 7.755 4.424 7.797 4.392C7.86117 4.3527 7.93591 4.33419 8.011 4.339L8.436 4.339C8.538 4.339 8.606 4.355 8.649 4.392C8.692 4.424 8.729 4.499 8.75 4.6L9.591 8.178L10.511 4.6C10.5281 4.52257 10.5649 4.4509 10.618 4.392C10.68 4.35273 10.7528 4.33417 10.826 4.339L11.321 4.339C11.406 4.339 11.454 4.382 11.454 4.472C11.454 4.499 11.448 4.526 11.444 4.558C11.4354 4.6034 11.4227 4.64791 11.406 4.691L10.123 8.818C10.091 8.925 10.054 8.995 10.012 9.027C9.95161 9.06562 9.88056 9.08417 9.809 9.08L9.352 9.08C9.251 9.08 9.182 9.064 9.139 9.027C9.096 8.989 9.059 8.92 9.038 8.813L8.213 5.37L7.393 8.809C7.367 8.916 7.335 8.985 7.293 9.022C7.25 9.06 7.175 9.076 7.08 9.076L6.622 9.076L6.622 9.075ZM13.46 9.219C13.1838 9.21937 12.9086 9.18715 12.64 9.123C12.374 9.059 12.167 8.989 12.028 8.909C11.943 8.861 11.885 8.808 11.863 8.759C11.8427 8.71195 11.8321 8.66125 11.832 8.61L11.832 8.338C11.832 8.226 11.874 8.172 11.954 8.172C11.9867 8.17207 12.0191 8.17748 12.05 8.188C12.082 8.199 12.13 8.22 12.183 8.242C12.363 8.322 12.561 8.386 12.768 8.429C12.981 8.471 13.188 8.493 13.401 8.493C13.737 8.493 13.997 8.434 14.178 8.317C14.355 8.20984 14.4608 8.01584 14.455 7.809C14.4586 7.67044 14.4068 7.53617 14.311 7.436C14.216 7.334 14.035 7.243 13.774 7.158L13.002 6.918C12.614 6.795 12.326 6.613 12.151 6.373C11.9797 6.15124 11.8862 5.87922 11.885 5.599C11.885 5.375 11.933 5.177 12.028 5.006C12.124 4.836 12.252 4.686 12.412 4.568C12.572 4.446 12.752 4.355 12.965 4.291C13.178 4.227 13.401 4.2 13.635 4.2C13.753 4.2 13.875 4.205 13.992 4.221C14.114 4.237 14.226 4.259 14.338 4.281C14.444 4.307 14.546 4.333 14.641 4.366C14.737 4.398 14.811 4.43 14.865 4.462C14.9278 4.49353 14.9825 4.53903 15.025 4.595C15.0592 4.64707 15.0757 4.7088 15.072 4.771L15.072 5.022C15.072 5.134 15.03 5.193 14.95 5.193C14.8792 5.18491 14.8106 5.16318 14.748 5.129C14.4264 4.98642 14.0777 4.91545 13.726 4.921C13.423 4.921 13.183 4.969 13.018 5.071C12.853 5.171 12.768 5.327 12.768 5.546C12.768 5.695 12.821 5.823 12.928 5.925C13.034 6.026 13.231 6.127 13.513 6.218L14.269 6.458C14.652 6.581 14.929 6.752 15.094 6.971C15.259 7.19 15.338 7.441 15.338 7.719C15.338 7.949 15.291 8.156 15.2 8.338C15.1058 8.52062 14.9735 8.6809 14.812 8.808C14.647 8.941 14.45 9.038 14.221 9.107C13.981 9.182 13.731 9.219 13.46 9.219Z" fill="#ffffff" fill-rule="nonzero" opacity="1" stroke="none" vectornator:layerName="path"/>
<g opacity="1" vectornator:layerName="g">
<path d="M14.465 11.813C12.715 13.11 10.171 13.799 7.984 13.799C4.919 13.799 2.157 12.662 0.071 10.772C-0.094 10.622 0.055 10.419 0.251 10.537C2.508 11.85 5.291 12.646 8.171 12.646C10.112 12.646 12.246 12.24 14.21 11.407C14.503 11.274 14.753 11.599 14.465 11.813Z" fill="#ff9900" fill-rule="evenodd" opacity="1" stroke="none" vectornator:layerName="path"/>
<path d="M15.194 10.98C14.971 10.693 13.715 10.842 13.146 10.911C12.976 10.933 12.949 10.783 13.103 10.671C14.103 9.966 15.748 10.169 15.939 10.404C16.131 10.644 15.886 12.294 14.949 13.084C14.806 13.207 14.668 13.144 14.731 12.984C14.944 12.454 15.418 11.264 15.194 10.981L15.194 10.98Z" fill="#ff9900" fill-rule="evenodd" opacity="1" stroke="none" vectornator:layerName="path"/>
</g>
</g>
</svg>
