<?xml version="1.0" encoding="UTF-8" standalone="no"?>
<!DOCTYPE svg PUBLIC "-//W3C//DTD SVG 1.1//EN" "http://www.w3.org/Graphics/SVG/1.1/DTD/svg11.dtd">
<!-- Created with Vectornator (http://vectornator.io/) -->
<svg height="100%" stroke-miterlimit="10" style="fill-rule:nonzero;clip-rule:evenodd;stroke-linecap:round;stroke-linejoin:round;" version="1.1" viewBox="0 0 16 16" width="100%" xml:space="preserve" xmlns="http://www.w3.org/2000/svg" xmlns:vectornator="http://vectornator.io" xmlns:xlink="http://www.w3.org/1999/xlink">
<defs/>
<g id="Untitled" vectornator:layerName="Untitled">
<path d="M13.655 3.56L8.918 0.75C8.35689 0.417492 7.65911 0.417492 7.098 0.75L2.363 3.56C1.79002 3.90192 1.43993 4.52076 1.442 5.188L1.442 10.812C1.4386 11.4773 1.7854 12.0953 2.355 12.439L7.091 15.251C7.65211 15.5835 8.34989 15.5835 8.911 15.251L13.647 12.439C14.2168 12.0954 14.5636 11.4773 14.56 10.812L14.56 5.188C14.5653 4.52454 14.2222 3.90694 13.656 3.561L13.655 3.56ZM9.986 12.341L9.986 12.745C9.9852 12.7955 9.95885 12.8422 9.916 12.869L9.677 13.006C9.639 13.026 9.607 13.006 9.607 12.953L9.607 12.557C9.43771 12.6399 9.2441 12.6588 9.062 12.61C9.03232 12.5905 9.02093 12.5526 9.035 12.52L9.121 12.155C9.13069 12.1147 9.15631 12.0801 9.192 12.059C9.20413 12.0538 9.21787 12.0538 9.23 12.059C9.39752 12.1039 9.57598 12.0813 9.727 11.996C9.94496 11.8891 10.087 11.6715 10.097 11.429C10.097 11.223 9.985 11.137 9.713 11.136C9.369 11.136 9.052 11.07 9.043 10.562C9.05116 10.1226 9.2555 9.70988 9.6 9.437L9.6 9.03C9.59973 8.97866 9.62626 8.93089 9.67 8.904L9.901 8.757C9.939 8.737 9.971 8.757 9.971 8.811L9.971 9.22C10.1127 9.15532 10.2709 9.1361 10.424 9.165C10.4574 9.18386 10.4705 9.22537 10.454 9.26L10.373 9.622C10.3631 9.65896 10.34 9.69099 10.308 9.712C10.2966 9.71581 10.2844 9.71581 10.273 9.712C10.1238 9.67966 9.96788 9.70541 9.837 9.784C9.6419 9.86828 9.51296 10.0576 9.506 10.27C9.506 10.455 9.604 10.512 9.931 10.518C10.369 10.518 10.558 10.717 10.563 11.157C10.5543 11.6174 10.3437 12.0507 9.987 12.342L9.986 12.341ZM12.467 11.661C12.4734 11.696 12.4594 11.7316 12.431 11.753L11.233 12.48C11.2217 12.4896 11.2056 12.4908 11.193 12.483C11.1804 12.4753 11.174 12.4605 11.177 12.446L11.177 12.136C11.1787 12.102 11.2002 12.0722 11.232 12.06L12.411 11.354C12.4226 11.3447 12.4388 11.3438 12.4514 11.3517C12.464 11.3595 12.4702 11.3745 12.467 11.389L12.467 11.662L12.467 11.661ZM13.294 4.747L8.812 7.515C8.253 7.846 7.842 8.208 7.842 8.882L7.842 14.402C7.842 14.806 8.007 15.064 8.255 15.143C8.17319 15.1584 8.09023 15.1667 8.007 15.168C7.743 15.168 7.485 15.096 7.259 14.961L2.522 12.15C2.05456 11.8665 1.76993 11.3587 1.772 10.812L1.772 5.188C1.76923 4.64059 2.05395 4.13189 2.522 3.848L7.26 1.038C7.71904 0.765885 8.28996 0.765885 8.749 1.038L13.485 3.85C13.8754 4.08608 14.1418 4.48236 14.213 4.933C14.059 4.599 13.705 4.506 13.293 4.748L13.295 4.748L13.294 4.747Z" fill="#ffffff" fill-rule="nonzero" opacity="1" stroke="none" vectornator:layerName="path"/>
</g>
</svg>
