<?xml version="1.0" encoding="UTF-8" standalone="no"?>
<!DOCTYPE svg PUBLIC "-//W3C//DTD SVG 1.1//EN" "http://www.w3.org/Graphics/SVG/1.1/DTD/svg11.dtd">
<!-- Created with Vectornator (http://vectornator.io/) -->
<svg height="100%" stroke-miterlimit="10" style="fill-rule:nonzero;clip-rule:evenodd;stroke-linecap:round;stroke-linejoin:round;" version="1.1" viewBox="0 0 512 512" width="100%" xml:space="preserve" xmlns="http://www.w3.org/2000/svg" xmlns:vectornator="http://vectornator.io" xmlns:xlink="http://www.w3.org/1999/xlink">
<defs/>
<g id="Untitled" vectornator:layerName="Untitled">
<path d="M150 0L362 0C444.843 0 512 67.1573 512 150L512 362C512 444.843 444.843 512 362 512L150 512C67.1573 512 4.69349e-14 444.843 0 362L0 150C0 67.1573 67.1573 1.5218e-14 150 0Z" fill="#ffffff" fill-opacity="1.04083e-17" fill-rule="nonzero" opacity="1" stroke="none" vectornator:layerName="rect"/>
<path d="M282 170L282 166C230 166 277 200 282 170ZM306 152C313 131 349 129 353 155L343 155C340 140 315 139 315 166C315 181 338 190 343 172L353 172C347 205 294 193 306 152ZM160 136L170 136L170 145C175 133 197 132 201 146C208 131 236 132 236 153L236 190L225 190L225 156C225 141 203 141 203 157L203 190L192 190L192 155C189.553 145.64 177.085 143.77 172 152L170 157L170 190L160 190L160 136ZM183 395C136 395 107 362 107 309C107 256 136 224 183 224C230 224 260 257 260 309C260 361 231 395 183 395ZM271 190C242 197 238 160 268 159L282 158L282 154C283 142 263 141 260 152L250 152C250.038 149.531 250.728 147.116 252 145C260 131 293 131 293 153L293 190L283 190L283 181C280.5 185.603 276.119 188.889 271 190ZM339 395C303 393 278 376 276 346L300 346C323 418 446 341 325 316C306 312 292 303 286 292C248 218 395 196 399 272L376 272C369 223 278 250 311 284C325 298 354 297 375 306C425 329 401 397 339 395ZM183 245C151 245 131 270 131 309C131 348 151 373 183 373C215 373 236 349 236 309C236 269 216 245 183 245Z" fill="#ffffff" fill-rule="nonzero" opacity="1" stroke="none" vectornator:layerName="path"/>
</g>
</svg>
