<?xml version="1.0" encoding="UTF-8" standalone="no"?>
<!DOCTYPE svg PUBLIC "-//W3C//DTD SVG 1.1//EN" "http://www.w3.org/Graphics/SVG/1.1/DTD/svg11.dtd">
<!-- Created with Vectornator (http://vectornator.io/) -->
<svg height="100%" stroke-miterlimit="10" style="fill-rule:nonzero;clip-rule:evenodd;stroke-linecap:round;stroke-linejoin:round;" version="1.1" viewBox="0 0 128 128" width="100%" xml:space="preserve" xmlns="http://www.w3.org/2000/svg" xmlns:vectornator="http://vectornator.io" xmlns:xlink="http://www.w3.org/1999/xlink">
<defs/>
<g id="Untitled" vectornator:layerName="Untitled">
<path d="M11.95 24.348C6.114 24.348 1.332 29.215 1.332 35.029L1.332 92.971C1.332 98.785 6.114 103.652 11.949 103.652L116.051 103.652C121.886 103.652 126.668 98.785 126.668 92.971L126.668 35.03C126.668 29.216 121.885 24.349 116.051 24.349L14.898 24.349L14.896 24.347L11.95 24.347L11.95 24.348ZM11.943 33.891L116.051 33.891C116.676 33.891 117.127 34.314 117.127 35.031L117.127 92.971C117.127 93.688 116.674 94.111 116.051 94.111L11.949 94.111C11.326 94.111 10.873 93.688 10.873 92.971L10.873 35.029C10.873 34.314 11.324 33.894 11.943 33.891Z" fill="#ffffff" fill-rule="nonzero" opacity="1" stroke="none" vectornator:layerName="path"/>
<path d="M20.721 84.1L20.721 43.9L32.42 43.9L44.117 58.68L55.81 43.9L67.506 43.9L67.506 84.1L55.81 84.1L55.81 61.044L44.116 75.824L32.418 61.044L32.418 84.1L20.722 84.1L20.721 84.1ZM93.825 84.1L76.28 64.591L87.977 64.591L87.977 43.9L99.675 43.9L99.675 64.59L111.373 64.59L93.825 84.1Z" fill="#ffffff" fill-rule="nonzero" opacity="1" stroke="none" vectornator:layerName="path"/>
</g>
</svg>
