<?xml version="1.0" encoding="UTF-8" standalone="no"?>
<!DOCTYPE svg PUBLIC "-//W3C//DTD SVG 1.1//EN" "http://www.w3.org/Graphics/SVG/1.1/DTD/svg11.dtd">
<!-- Created with Vectornator (http://vectornator.io/) -->
<svg height="100%" stroke-miterlimit="10" style="fill-rule:nonzero;clip-rule:evenodd;stroke-linecap:round;stroke-linejoin:round;" version="1.1" viewBox="0 0 317 317" width="100%" xml:space="preserve" xmlns="http://www.w3.org/2000/svg" xmlns:vectornator="http://vectornator.io" xmlns:xlink="http://www.w3.org/1999/xlink">
<defs/>
<g id="Untitled" vectornator:layerName="Untitled">
<g opacity="1" vectornator:layerName="g">
<path d="M127.399 111.577C104.024 98.0822 92.6282 70.5697 99.6139 44.4988C106.6 18.4278 130.225 0.299331 157.216 0.299331C184.206 0.299331 207.832 18.4278 214.818 44.4988C221.803 70.5697 210.407 98.0822 187.033 111.577L169.078 80.4788C178.377 75.1099 182.911 64.1646 180.131 53.7929C177.352 43.4211 167.953 36.209 157.216 36.209C146.478 36.209 137.079 43.4211 134.3 53.7929C131.521 64.1646 136.055 75.1099 145.354 80.4788L127.399 111.577Z" fill="#ff0101" fill-rule="nonzero" opacity="1" stroke="none" vectornator:layerName="path"/>
<path d="M255.1 126.014C278.474 139.51 289.87 167.022 282.884 193.093C275.899 219.164 252.273 237.293 225.283 237.293C198.292 237.293 174.666 219.164 167.681 193.093C160.695 167.022 172.091 139.51 195.466 126.014L213.421 157.113C204.121 162.482 199.588 173.427 202.367 183.799C205.146 194.171 214.545 201.383 225.283 201.383C236.02 201.383 245.419 194.171 248.198 183.799C250.977 173.427 246.444 162.482 237.145 157.113L255.1 126.014Z" fill="#0101ff" fill-rule="nonzero" opacity="1" stroke="none" vectornator:layerName="path"/>
<path d="M150.067 177.659C150.067 204.649 131.938 228.275 105.867 235.261C79.7966 242.246 52.284 230.85 38.7887 207.476C25.2934 184.101 29.1804 154.577 48.2657 135.491C67.3509 116.406 96.8755 112.519 120.25 126.014L102.295 157.113C92.9961 151.744 81.2503 153.291 73.6577 160.883C66.065 168.476 64.5186 180.222 69.8875 189.521C75.2563 198.82 86.2016 203.354 96.5734 200.575C106.945 197.795 114.157 188.397 114.157 177.659L150.067 177.659Z" fill="#01ff01" fill-rule="nonzero" opacity="1" stroke="none" vectornator:layerName="path"/>
<path d="M47.8292 251.591C52.8765 251.137 57.9793 251.141 63.0009 251.86C66.096 252.408 69.3795 253.209 71.704 255.465C74.1399 258.183 74.7392 261.959 75.2743 265.439C76.1519 272.661 76.0492 279.986 75.2743 287.212C74.7563 290.74 74.2469 294.55 71.9352 297.418C69.4137 299.978 65.6893 300.706 62.2731 301.245C57.2302 301.875 52.1144 302.02 47.0501 301.515C43.6211 301.164 40.0422 300.56 37.1226 298.604C35.2347 297.405 34.2201 295.29 33.5309 293.24C32.1482 288.967 31.9726 284.43 31.7843 279.978C31.7629 274.096 31.8742 268.154 33.0215 262.366C33.6422 259.664 34.3957 256.694 36.6774 254.891C39.8924 252.558 43.9807 251.993 47.8292 251.591ZM48.664 259.652C46.5407 259.973 43.8951 260.148 42.6151 262.126C41.4977 265.076 41.5363 268.295 41.3094 271.399C41.2023 276.934 40.9241 282.52 41.7803 288.013C42.0971 289.866 42.7478 292.075 44.8069 292.619C49.2719 293.985 54.0494 293.754 58.6514 293.492C60.946 293.141 63.9898 292.944 65.1071 290.543C66.3871 286.887 66.2972 282.94 66.4556 279.121C66.4042 273.753 66.7039 268.282 65.4196 263.029C65.1114 261.163 63.1764 260.367 61.5368 260.037C57.3072 259.206 52.9407 259.309 48.664 259.652ZM93.7594 268.321C96.8245 266.373 100.63 266.056 104.166 266.377C107.467 266.66 111.131 267.781 112.899 270.821C115.01 274.635 115.13 279.143 115.275 283.398C115.181 287.773 115.1 292.341 113.293 296.408C112.262 298.878 109.89 300.496 107.351 301.134C103.464 302.089 99.1919 302.191 95.4461 300.642C93.4212 299.85 92.0213 298.129 90.8612 296.365L90.8612 316.361L82.2993 316.361C82.3036 299.811 82.2908 283.257 82.3036 266.707C85.0734 266.694 87.8431 266.694 90.6086 266.707C90.5144 268.41 90.4203 270.11 90.3732 271.818C91.4006 270.564 92.3553 269.185 93.7594 268.321ZM96.5463 272.79C94.5086 272.948 92.291 273.959 91.7131 276.09C90.6215 279.849 90.8141 283.83 90.9725 287.7C91.2379 290.222 91.5504 293.471 94.2346 294.601C97.1199 295.719 100.451 295.659 103.37 294.704C105.896 293.814 106.264 290.843 106.529 288.548C106.795 284.746 106.889 280.868 106.144 277.114C105.892 275.658 105.142 274.155 103.721 273.543C101.478 272.554 98.9436 272.606 96.5463 272.79ZM125.52 268.385C129.728 266.223 134.655 266.146 139.274 266.364C143.119 266.685 147.785 267.327 149.904 271.005C152.293 275.444 151.903 280.667 152.237 285.538L128.816 285.538C129.09 288.051 128.765 290.761 130.032 293.064C131.115 294.884 133.414 295.256 135.357 295.363C137.759 295.38 140.345 295.577 142.558 294.46C143.825 293.467 143.834 291.703 143.996 290.247C146.736 290.243 149.476 290.243 152.216 290.247C152.113 293.107 151.745 296.309 149.45 298.321C146.004 301.412 141.072 301.733 136.663 301.819C132.772 301.703 128.662 301.506 125.177 299.588C122.356 297.923 121.457 294.503 120.96 291.489C120.331 287.011 120.173 282.448 120.708 277.953C121.145 274.404 122.099 270.23 125.52 268.385ZM130.524 273.834C128.735 275.465 128.91 278.171 128.833 280.388C133.867 280.414 138.902 280.401 143.941 280.393C143.932 278.398 144.125 276.223 143.046 274.447C141.988 273.008 140.006 272.914 138.38 272.738C135.755 272.7 132.861 272.413 130.524 273.834ZM170.469 268.363C173.432 266.308 177.259 266.022 180.744 266.424C183.71 266.737 186.853 267.867 188.604 270.427C190.158 272.55 190.59 275.256 190.611 277.828C190.598 285.68 190.616 293.527 190.607 301.378C187.893 301.382 185.183 301.382 182.478 301.378C182.465 293.951 182.486 286.527 182.465 279.104C182.383 277.482 182.448 275.607 181.227 274.357C179.926 272.948 177.884 272.674 176.065 272.687C173.864 272.674 171.484 273.051 169.789 274.571C168.132 275.983 167.503 278.261 167.494 280.367C167.481 287.371 167.499 294.374 167.486 301.374C164.776 301.382 162.066 301.382 159.36 301.378C159.356 289.819 159.356 278.261 159.36 266.702C162.023 266.694 164.69 266.698 167.353 266.702C167.34 268.732 167.139 270.748 167.079 272.777C167.952 271.137 168.868 269.408 170.469 268.363ZM205.329 253.175C209.816 251.668 214.597 251.454 219.289 251.287C223.836 251.308 228.587 251.351 232.834 253.183C234.992 254.082 236.486 256.051 237.214 258.226C238.399 261.475 238.434 264.994 238.459 268.415C235.33 268.415 232.201 268.423 229.076 268.41C229.024 266.005 229.208 263.308 227.718 261.261C226.212 259.72 223.857 259.724 221.858 259.489C217.791 259.412 213.557 259.151 209.661 260.555C208.257 261 207.53 262.404 207.247 263.757C206.446 267.387 206.442 271.133 206.446 274.836C206.494 279.785 206.417 284.806 207.474 289.674C207.752 291.455 209.392 292.551 211.036 292.944C214.837 293.891 218.806 293.754 222.688 293.522C224.713 293.257 227.179 293.124 228.451 291.266C229.808 289.049 229.581 286.322 229.508 283.83C232.667 283.818 235.822 283.822 238.982 283.83C238.943 287.765 238.875 291.827 237.445 295.552C236.708 297.499 235.189 299.152 233.219 299.897C229.354 301.446 225.116 301.545 221.015 301.793C216.258 301.875 211.442 301.759 206.793 300.65C204.066 299.94 201.087 298.689 199.824 295.98C198.21 292.397 197.915 288.411 197.499 284.554C197.153 279.46 196.93 274.357 197.054 269.254C197.298 265.123 197.675 260.769 199.905 257.169C201.091 255.165 203.172 253.911 205.329 253.175ZM240.523 251.732C243.785 251.736 247.047 251.642 250.305 251.779C253.477 261.843 256.962 271.805 260.164 281.857C261.409 285.718 262.291 289.691 263.58 293.54C265.023 289.387 265.947 285.072 267.36 280.911C270.489 271.189 273.704 261.497 276.829 251.775C280.049 251.638 283.276 251.758 286.5 251.715L286.5 252.781C281.2 268.933 276.025 285.127 270.832 301.318C265.986 301.416 261.131 301.429 256.285 301.309C251.122 284.755 245.711 268.278 240.523 251.732Z" fill="#ffffff" fill-rule="nonzero" opacity="1" stroke="none" vectornator:layerName="path"/>
</g>
</g>
</svg>
