<?xml version="1.0" encoding="UTF-8" standalone="no"?>
<!DOCTYPE svg PUBLIC "-//W3C//DTD SVG 1.1//EN" "http://www.w3.org/Graphics/SVG/1.1/DTD/svg11.dtd">
<!-- Created with Vectornator (http://vectornator.io/) -->
<svg height="100%" stroke-miterlimit="10" style="fill-rule:nonzero;clip-rule:evenodd;stroke-linecap:round;stroke-linejoin:round;" version="1.1" viewBox="0 0 786.2 423.999" width="100%" xml:space="preserve" xmlns="http://www.w3.org/2000/svg" xmlns:vectornator="http://vectornator.io" xmlns:xlink="http://www.w3.org/1999/xlink">
<defs/>
<clipPath id="ArtboardFrame">
<rect height="423.999" width="786.2" x="0" y="0"/>
</clipPath>
<g clip-path="url(#ArtboardFrame)" id="g3" vectornator:layerName="g3">
<path d="M603.037 360.294C699.055 264.281 715.014 124.575 638.678 48.2455C562.355-28.0755 422.654-12.1201 326.641 83.8871C230.628 179.897 258.403 363.327 291.005 395.936C317.351 422.281 507.03 456.301 603.037 360.294Z" fill="#f89939" fill-rule="nonzero" opacity="1" stroke="none" vectornator:layerName="path"/>
<path d="M209.057 221.558C153.355 165.856 72.2908 156.582 27.9939 200.876C-16.2916 245.165-7.03254 326.24 48.6809 381.934C104.394 437.653 210.829 421.536 229.732 402.615C245.03 387.343 264.776 277.265 209.057 221.558Z" fill="#3499cd" fill-rule="nonzero" opacity="1" stroke="none" vectornator:layerName="path"/>
</g>
<g clip-path="url(#ArtboardFrame)" id="g9" vectornator:layerName="g9">
<g opacity="1" vectornator:layerName="g11">
<path d="M401.25 336.761C391.41 345.818 382.777 352.503 375.358 356.798C367.939 361.108 360.863 363.259 354.129 363.259C346.384 363.259 340.136 360.257 335.399 354.25C330.653 348.237 328.288 340.174 328.288 330.03C328.288 314.832 331.583 296.586 338.171 275.312C344.748 254.021 352.757 234.403 362.164 216.455L389.746 206.243C390.61 205.954 391.268 205.806 391.705 205.806C393.797 205.806 395.526 207.349 396.853 210.419C398.194 213.503 398.869 217.648 398.869 222.859C398.869 237.626 395.469 251.923 388.657 265.75C381.847 279.582 371.21 294.343 356.735 310.052C356.154 317.582 355.864 322.753 355.864 325.579C355.864 331.882 357.021 336.868 359.337 340.562C361.656 344.262 364.73 346.099 368.568 346.099C372.483 346.099 376.642 344.699 381.059 341.875C385.468 339.046 392.201 333.189 401.247 324.278L401.247 336.761L401.25 336.761ZM359.666 294.312C368.857 284.092 376.322 272.63 382.037 259.949C387.753 247.263 390.607 236.351 390.607 227.208C390.607 224.543 390.213 222.377 389.422 220.75C388.626 219.119 387.605 218.3 386.378 218.3C383.71 218.3 379.812 224.968 374.706 238.307C369.6 251.643 364.588 270.314 359.666 294.312Z" fill="#ffffff" fill-rule="nonzero" opacity="1" stroke="none" vectornator:layerName="path"/>
<path d="M482.478 336.761C473.287 345.818 465.037 352.503 457.723 356.798C450.409 361.108 442.346 363.259 433.509 363.259C423.663 363.259 415.72 360.11 409.667 353.819C403.626 347.511 400.609 339.23 400.609 328.947C400.609 313.604 405.925 299.721 416.579 287.307C427.21 274.887 439.015 268.681 451.971 268.681C458.704 268.681 464.091 270.424 468.15 273.897C472.204 277.376 474.231 281.932 474.231 287.579C474.231 302.568 458.307 314.721 426.456 324.063C429.348 338.172 436.911 345.237 449.147 345.237C453.927 345.237 458.483 343.953 462.823 341.39C467.175 338.816 473.721 333.106 482.481 324.281L482.481 336.761L482.478 336.761ZM425.58 316.678C444.107 311.461 453.377 301.839 453.377 287.795C453.377 280.846 450.84 277.373 445.779 277.373C441 277.373 436.444 281.005 432.103 288.288C427.749 295.56 425.58 305.017 425.58 316.678Z" fill="#ffffff" fill-rule="nonzero" opacity="1" stroke="none" vectornator:layerName="path"/>
<path d="M598.447 336.761C586.863 347.763 578.574 354.939 573.584 358.273C568.589 361.601 563.812 363.262 559.247 363.262C547.808 363.262 542.419 353.167 543.068 332.967C535.83 343.315 529.148 350.953 523.03 355.886C516.918 360.807 510.604 363.262 504.081 363.262C497.719 363.262 492.31 360.283 487.851 354.309C483.391 348.336 481.177 341.01 481.177 332.315C481.177 321.463 484.157 311.11 490.124 301.258C496.103 291.412 503.758 283.457 513.094 277.376C522.429 271.295 530.69 268.25 537.849 268.25C546.901 268.25 553.237 272.415 556.857 280.735L579.05 268.471L585.139 268.471L575.554 300.283C570.633 316.286 568.163 327.255 568.163 333.189C568.163 339.411 570.366 342.524 574.786 342.524C577.598 342.524 580.711 341.024 584.116 338.017C587.521 335.009 592.289 330.43 598.441 324.278L598.441 336.761L598.447 336.761ZM518.962 342.74C526.2 342.74 533.021 336.571 539.439 324.23C545.846 311.884 549.047 300.492 549.047 290.071C549.047 286.023 548.134 282.85 546.334 280.574C544.517 278.286 542.093 277.152 539.059 277.152C531.816 277.152 524.95 283.304 518.483 295.613C512.005 307.923 508.759 319.252 508.759 329.594C508.759 333.509 509.723 336.676 511.639 339.102C513.556 341.529 515.988 342.74 518.962 342.74Z" fill="#ffffff" fill-rule="nonzero" opacity="1" stroke="none" vectornator:layerName="path"/>
<path d="M679.565 336.761C661.392 354.567 647.382 363.478 637.539 363.478C633.119 363.478 629.388 361.612 626.355 357.896C623.321 354.165 621.793 349.546 621.793 344.041C621.793 333.835 627.265 320.159 638.194 302.999C632.833 305.751 626.976 307.662 620.602 308.751C615.896 317.437 608.508 326.779 598.45 336.758L595.958 336.758L595.958 326.997C601.599 321.134 606.705 314.832 611.267 308.099C605.033 305.346 601.925 301.255 601.925 295.835C601.925 290.252 603.819 284.302 607.629 277.96C611.428 271.632 616.656 268.468 623.321 268.468C628.969 268.468 631.787 271.354 631.787 277.149C631.787 281.711 630.159 288.223 626.896 296.696C638.911 295.389 649.409 286.204 658.39 269.115L668.267 268.678L658.169 296.475C653.973 308.204 651.257 316.193 650.03 320.423C648.802 324.652 648.181 328.406 648.181 331.658C648.181 334.702 648.89 337.135 650.296 338.932C651.708 340.755 653.613 341.651 656 341.651C658.603 341.651 661.106 340.761 663.493 338.997C665.88 337.209 671.238 332.31 679.568 324.275L679.568 336.761L679.565 336.761Z" fill="#ffffff" fill-rule="nonzero" opacity="1" stroke="none" vectornator:layerName="path"/>
<path d="M786.2 336.761C769.48 354.434 755.137 363.262 743.199 363.262C738.348 363.262 734.439 361.561 731.471 358.156C728.497 354.757 727.014 350.199 727.014 344.48C727.014 336.735 730.204 324.896 736.577 308.978C739.976 300.433 741.682 294.995 741.682 292.688C741.682 290.369 740.77 289.209 738.969 289.209C737.957 289.209 736.611 289.719 734.949 290.726C733.421 291.738 731.649 293.161 729.622 294.967C727.816 296.628 725.784 298.655 723.541 301.037C721.582 303.081 719.482 305.394 717.25 307.991L711.161 315.056C708.487 318.31 706.82 321.744 706.171 325.367C705.08 331.519 704.36 337.172 703.994 342.317C703.773 346.144 703.668 351.316 703.668 357.845L679.67 363.481C678.879 353.708 678.473 346.431 678.473 341.66C678.473 330.005 679.831 318.963 682.55 308.541C685.263 298.108 689.621 286.388 695.634 273.353L722.124 268.253C716.553 283.242 712.899 295.035 711.161 303.645C723.034 290.4 732.446 281.231 739.423 276.12C746.389 271.014 752.592 268.474 758.012 268.474C761.695 268.474 764.774 269.863 767.226 272.644C769.689 275.428 770.914 278.924 770.914 283.103C770.914 290.046 767.801 301.485 761.584 317.417C757.309 328.344 755.171 335.434 755.171 338.708C755.171 343.066 756.949 345.243 760.504 345.243C765.797 345.243 774.37 338.255 786.2 324.284L786.2 336.761Z" fill="#ffffff" fill-rule="nonzero" opacity="1" stroke="none" vectornator:layerName="path"/>
</g>
</g>
<g id="Untitled" vectornator:layerName="Untitled">
<g fill="#ffffff" opacity="1" stroke="none" vectornator:layerName="text">
<path d="M446.587 221.582C446.757 223.499 447.236 224.969 448.024 225.991C449.473 227.844 451.986 228.77 455.564 228.77C457.694 228.77 459.568 228.307 461.187 227.381C462.806 226.454 463.615 225.022 463.615 223.084C463.615 221.614 462.966 220.496 461.666 219.729C460.836 219.26 459.196 218.717 456.746 218.1L452.178 216.95C449.26 216.225 447.108 215.416 445.724 214.521C443.253 212.967 442.018 210.815 442.018 208.068C442.018 204.83 443.184 202.211 445.516 200.209C447.849 198.206 450.985 197.205 454.925 197.205C460.08 197.205 463.796 198.718 466.075 201.742C467.502 203.659 468.194 205.725 468.152 207.94L462.721 207.94C462.614 206.641 462.156 205.459 461.347 204.394C460.026 202.882 457.737 202.125 454.478 202.125C452.305 202.125 450.66 202.541 449.542 203.371C448.424 204.202 447.865 205.299 447.865 206.662C447.865 208.153 448.599 209.346 450.069 210.24C450.921 210.773 452.178 211.241 453.839 211.646L457.641 212.573C461.773 213.574 464.542 214.543 465.947 215.48C468.184 216.95 469.302 219.26 469.302 222.413C469.302 225.458 468.147 228.089 465.836 230.304C463.525 232.519 460.005 233.627 455.277 233.627C450.186 233.627 446.581 232.471 444.462 230.16C442.343 227.849 441.209 224.99 441.06 221.582L446.587 221.582Z"/>
<path d="M489.078 197.11C492.933 197.11 496.069 198.047 498.487 199.921C500.904 201.795 502.358 205.022 502.848 209.601L497.257 209.601C496.916 207.493 496.139 205.741 494.925 204.346C493.711 202.951 491.762 202.253 489.078 202.253C485.415 202.253 482.795 204.042 481.219 207.621C480.196 209.942 479.685 212.807 479.685 216.215C479.685 219.644 480.409 222.53 481.858 224.873C483.306 227.216 485.585 228.387 488.695 228.387C491.08 228.387 492.97 227.658 494.366 226.199C495.761 224.74 496.724 222.743 497.257 220.208L502.848 220.208C502.209 224.745 500.611 228.062 498.056 230.16C495.5 232.258 492.23 233.307 488.247 233.307C483.775 233.307 480.207 231.672 477.545 228.403C474.882 225.134 473.551 221.05 473.551 216.151C473.551 210.145 475.01 205.469 477.928 202.125C480.846 198.782 484.563 197.11 489.078 197.11Z"/>
<path d="M508.599 198.26L514.445 198.26L514.445 232.317L508.599 232.317L508.599 198.26ZM508.599 185.384L514.445 185.384L514.445 191.902L508.599 191.902L508.599 185.384Z"/>
<path d="M523.007 185.384L528.534 185.384L528.534 212.637L543.295 198.1L550.643 198.1L537.544 210.911L551.378 232.317L544.029 232.317L533.359 215.065L528.534 219.473L528.534 232.317L523.007 232.317L523.007 185.384Z"/>
<path d="M555.85 198.26L561.697 198.26L561.697 232.317L555.85 232.317L555.85 198.26ZM555.85 185.384L561.697 185.384L561.697 191.902L555.85 191.902L555.85 185.384Z"/>
<path d="M571.537 188.547L577.352 188.547L577.352 198.1L582.815 198.1L582.815 202.796L577.352 202.796L577.352 225.128C577.352 226.321 577.756 227.12 578.566 227.524C579.013 227.759 579.758 227.876 580.802 227.876C581.079 227.876 581.377 227.871 581.697 227.86C582.016 227.849 582.389 227.823 582.815 227.78L582.815 232.317C582.154 232.508 581.468 232.647 580.754 232.732C580.041 232.817 579.268 232.86 578.438 232.86C575.754 232.86 573.933 232.173 572.975 230.799C572.016 229.425 571.537 227.642 571.537 225.448L571.537 202.796L566.904 202.796L566.904 198.1L571.537 198.1L571.537 188.547Z"/>
</g>
</g>
</svg>
