<?xml version="1.0" encoding="UTF-8" standalone="no"?>
<!DOCTYPE svg PUBLIC "-//W3C//DTD SVG 1.1//EN" "http://www.w3.org/Graphics/SVG/1.1/DTD/svg11.dtd">
<!-- Created with Vectornator (http://vectornator.io/) -->
<svg height="100%" stroke-miterlimit="10" style="fill-rule:nonzero;clip-rule:evenodd;stroke-linecap:round;stroke-linejoin:round;" version="1.1" viewBox="0 0 380 380" width="100%" xml:space="preserve" xmlns="http://www.w3.org/2000/svg" xmlns:vectornator="http://vectornator.io" xmlns:xlink="http://www.w3.org/1999/xlink">
<defs/>
<g id="Untitled" vectornator:layerName="Untitled">
<g opacity="1" vectornator:layerName="g">
<path d="M107.465 120.743L49.2675 190.054" fill="none" opacity="1" stroke="#f15a24" stroke-linecap="round" stroke-linejoin="round" stroke-width="6.26753" vectornator:layerName="path"/>
<path d="M52.0177 136.285C52.0177 129.651 57.396 124.272 64.0305 124.272C70.665 124.272 76.0433 129.651 76.0433 136.285C76.0433 142.919 70.665 148.298 64.0305 148.298C57.396 148.298 52.0177 142.919 52.0177 136.285Z" fill="none" opacity="1" stroke="#f15a24" stroke-linecap="round" stroke-linejoin="round" stroke-width="9.78818" vectornator:layerName="circle"/>
<path d="M80.4927 174.548C80.4927 167.914 85.871 162.535 92.5055 162.535C99.14 162.535 104.518 167.914 104.518 174.548C104.518 181.182 99.14 186.561 92.5055 186.561C85.871 186.561 80.4927 181.182 80.4927 174.548Z" fill="none" opacity="1" stroke="#f15a24" stroke-linecap="round" stroke-linejoin="round" stroke-width="9.78818" vectornator:layerName="circle"/>
<path d="M173.1 188.32L131.541 188.32" fill="none" opacity="1" stroke="#f15a24" stroke-linecap="round" stroke-linejoin="round" stroke-width="6.26753" vectornator:layerName="path"/>
<path d="M187.851 343.542L66.8405 343.542C42.4785 343.542 22.7295 323.793 22.7295 299.431L22.7295 74.315C22.7295 49.953 42.4785 30.204 66.8405 30.204L313.16 30.204C337.521 30.204 357.271 49.953 357.271 74.315L357.271 343.542" fill="none" opacity="1" stroke="#000000" stroke-linecap="round" stroke-linejoin="miter" stroke-width="17.8359" vectornator:layerName="path"/>
<path d="M27.5475 91.587L349.928 91.586" fill="none" opacity="1" stroke="#000000" stroke-linecap="round" stroke-linejoin="miter" stroke-width="17.8359" vectornator:layerName="path"/>
</g>
<path d="M256.773 343.383C256.773 340.948 255.806 338.612 254.084 336.889C252.361 335.167 250.025 334.2 247.59 334.2C247.519 334.2 247.451 334.209 247.381 334.21L226.738 334.21C226.565 334.21 226.394 334.168 226.24 334.086C226.087 334.005 225.956 333.887 225.859 333.743C225.761 333.599 225.701 333.434 225.682 333.261C225.664 333.089 225.688 332.914 225.753 332.753L255.944 257.48C256.44 256.242 256.625 254.902 256.483 253.577C256.342 252.252 255.877 250.981 255.13 249.877C254.383 248.773 253.377 247.869 252.2 247.244C251.023 246.619 249.71 246.292 248.377 246.292L216.557 246.292C216.377 246.281 216.199 246.265 216.016 246.265C214.841 246.265 213.677 246.496 212.59 246.946C211.504 247.396 210.518 248.055 209.686 248.886C208.855 249.718 208.196 250.704 207.746 251.79C207.296 252.876 207.065 254.04 207.065 255.216L207.065 255.218L207.065 255.219C207.064 256.395 207.295 257.559 207.745 258.645C208.194 259.731 208.854 260.718 209.685 261.549C210.516 262.38 211.503 263.039 212.59 263.488C213.676 263.938 214.84 264.168 216.016 264.167C216.157 264.167 216.293 264.153 216.432 264.146L232.921 264.146C233.102 264.146 233.281 264.191 233.441 264.275C233.6 264.36 233.737 264.483 233.839 264.633C233.94 264.783 234.003 264.956 234.023 265.136C234.042 265.316 234.017 265.498 233.95 265.666L207.77 331.048C207.304 332.211 207.065 333.453 207.065 334.706L207.065 342.724C207.065 345.334 208.102 347.838 209.948 349.684C211.794 351.53 214.297 352.567 216.908 352.567L247.595 352.567C248.8 352.567 249.994 352.33 251.108 351.869C252.221 351.407 253.233 350.731 254.085 349.879C254.938 349.027 255.614 348.015 256.075 346.901C256.536 345.788 256.774 344.594 256.773 343.389L256.773 343.386L256.773 343.383Z" fill="#000000" fill-rule="nonzero" opacity="1" stroke="none" vectornator:layerName="path"/>
<path d="M309.92 269.053C309.984 265.559 309.656 262.069 308.942 258.648C308.383 255.765 307.265 253.468 305.588 251.756C304.005 249.954 301.769 248.693 298.882 247.972C296.087 247.162 292.501 246.756 288.124 246.756C283.932 246.756 279.132 247.162 276.244 247.972C273.629 248.59 271.25 249.952 269.398 251.891C267.722 253.783 266.511 256.351 265.766 259.594C265.02 262.747 264.648 266.756 264.648 271.621C264.648 276.305 264.694 280.089 264.787 282.972C264.909 285.33 265.189 287.678 265.626 289.999C265.977 291.533 266.591 292.996 267.442 294.323C268.244 295.467 269.182 296.511 270.236 297.431C271.699 298.716 273.291 299.848 274.987 300.809C276.85 301.89 278.759 302.926 280.715 303.917C282.671 304.909 284.534 305.944 286.304 307.025C287.972 307.962 289.52 309.097 290.915 310.404C291.467 311.001 291.981 311.633 292.452 312.295C292.791 312.695 293.055 313.153 293.231 313.647C293.392 314.088 293.527 314.538 293.635 314.995C293.788 315.707 293.86 316.433 293.849 317.16C293.942 318.241 293.989 319.728 293.989 321.62C294.028 324.194 293.888 326.767 293.57 329.322C293.48 330.778 293.099 332.202 292.452 333.511C291.96 334.36 291.16 334.989 290.216 335.268C289.285 335.538 286.065 335.673 284.667 335.673C283.536 335.695 282.407 335.558 281.314 335.268C280.434 334.871 279.702 334.209 279.218 333.376C278.666 332.081 278.29 330.717 278.101 329.322C277.891 327.08 277.798 324.829 277.821 322.578C277.821 322.327 277.808 322.076 277.782 321.826L277.726 321.826C277.469 320.034 276.571 318.393 275.197 317.207C273.822 316.02 272.064 315.367 270.245 315.367C268.426 315.367 266.668 316.02 265.294 317.207C263.92 318.393 263.022 320.034 262.765 321.826L262.721 321.826C262.691 322.101 262.678 322.377 262.68 322.653C262.681 322.717 262.682 322.779 262.682 322.843C262.682 322.862 262.679 322.88 262.679 322.899C262.679 322.931 262.684 322.961 262.684 322.992C262.707 324.767 262.732 326.36 262.732 327.16C262.732 332.475 263.105 336.799 263.85 340.133C264.688 343.375 265.992 345.943 267.762 347.835C269.595 349.672 271.925 350.939 274.468 351.484C277.715 352.267 281.049 352.63 284.388 352.565C288.86 352.565 294.641 352.159 297.621 351.348C300.441 350.642 302.947 349.027 304.747 346.754C306.61 344.502 307.914 341.394 308.659 337.43C309.497 333.376 309.917 328.196 309.917 321.89C309.917 317.295 309.777 313.602 309.497 310.809C309.414 308.464 308.99 306.142 308.24 303.917C307.698 302.293 306.79 300.814 305.585 299.593C304.368 298.356 303.008 297.268 301.533 296.35C300.184 295.501 298.784 294.734 297.342 294.053C295.758 293.152 294.082 292.296 292.312 291.485C290.542 290.584 288.866 289.683 287.282 288.782C285.877 287.917 284.524 286.969 283.23 285.945C282.626 285.452 282.065 284.91 281.554 284.323C281.149 283.706 280.864 283.018 280.715 282.296C280.499 281.272 280.359 280.233 280.296 279.188L280.296 274.053C280.271 272.112 280.364 270.172 280.575 268.242C280.683 267.064 281.015 265.918 281.554 264.864C282.028 264.113 282.781 263.578 283.649 263.378C284.488 263.107 286.82 262.972 288.124 262.972C291.104 262.972 292.967 263.828 293.712 265.54C294.302 266.622 294.634 267.823 294.685 269.053C294.716 270.037 294.731 271.316 294.735 272.657L294.788 272.657C294.788 272.675 294.785 272.693 294.785 272.711C294.785 274.709 295.582 276.625 297.001 278.037C298.42 279.45 300.344 280.243 302.351 280.243C304.357 280.243 306.282 279.45 307.701 278.037C309.119 276.625 309.917 274.709 309.917 272.711C309.917 272.693 309.914 272.676 309.914 272.657L309.917 272.657C309.918 271.156 309.92 269.81 309.92 269.053Z" fill="#000000" fill-rule="nonzero" opacity="1" stroke="none" vectornator:layerName="path"/>
<path d="M365.859 255.138C365.865 253.911 365.616 252.695 365.126 251.57C364.636 250.444 363.917 249.433 363.014 248.601C362.112 247.769 361.046 247.135 359.884 246.738C358.722 246.342 357.491 246.191 356.268 246.298C355.045 246.404 353.858 246.764 352.782 247.354C351.706 247.945 350.765 248.754 350.019 249.729C349.274 250.704 348.739 251.824 348.451 253.017C348.162 254.21 348.125 255.45 348.343 256.658L348.343 288.119C348.343 288.641 348.135 289.142 347.766 289.511C347.397 289.881 346.896 290.088 346.374 290.088L335.458 290.088C334.936 290.088 334.435 289.881 334.066 289.511C333.697 289.142 333.489 288.641 333.489 288.119L333.489 255.336C333.489 255.303 333.485 255.27 333.484 255.237C333.485 255.204 333.489 255.171 333.489 255.138C333.489 252.797 332.559 250.551 330.904 248.896C329.248 247.24 327.003 246.31 324.661 246.31C322.32 246.31 320.075 247.24 318.419 248.896C316.763 250.551 315.833 252.797 315.833 255.138C315.833 255.171 315.838 255.204 315.838 255.237C315.839 255.27 315.833 255.303 315.833 255.336L315.833 343.757L315.834 343.774L315.833 343.79C315.833 346.131 316.763 348.377 318.419 350.032C320.075 351.688 322.32 352.618 324.661 352.618C327.003 352.618 329.248 351.688 330.904 350.032C332.559 348.377 333.489 346.131 333.489 343.79L333.488 343.774L333.489 343.757L333.489 308.732C333.489 308.21 333.697 307.709 334.066 307.34C334.435 306.971 334.936 306.763 335.458 306.763L346.374 306.763C346.896 306.763 347.397 306.971 347.766 307.34C348.135 307.709 348.343 308.21 348.343 308.732L348.343 342.237C348.114 343.506 348.167 344.81 348.498 346.057C348.829 347.303 349.431 348.461 350.26 349.449C351.09 350.436 352.126 351.229 353.296 351.771C354.466 352.313 355.742 352.591 357.031 352.585C357.043 352.585 357.054 352.583 357.066 352.583C357.078 352.583 357.089 352.585 357.101 352.585C358.251 352.585 359.39 352.358 360.453 351.918C361.515 351.478 362.481 350.833 363.294 350.02C364.107 349.207 364.752 348.241 365.192 347.178C365.633 346.116 365.859 344.977 365.859 343.827L365.859 255.266C365.859 255.244 365.856 255.224 365.856 255.202C365.856 255.181 365.859 255.16 365.859 255.138Z" fill="#000000" fill-rule="nonzero" opacity="1" stroke="none" vectornator:layerName="path"/>
</g>
</svg>
